<svg width="583" height="91" viewBox="0 0 583 91" fill="none" xmlns="http://www.w3.org/2000/svg">
<path d="M0.646617 2.456H12.6466V71H0.646617V2.456ZM67.8774 68.408C67.8774 75.896 65.7654 81.464 61.5414 85.112C57.3814 88.824 51.3654 90.68 43.4934 90.68C40.9974 90.68 38.4694 90.424 35.9094 89.912C33.4134 89.4 31.1094 88.536 28.9974 87.32C26.9494 86.104 25.2214 84.504 23.8134 82.52C22.4054 80.536 21.5734 78.104 21.3174 75.224H32.2614C32.5814 76.76 33.1254 78.008 33.8934 78.968C34.6614 79.928 35.5574 80.664 36.5814 81.176C37.6694 81.752 38.8534 82.104 40.1334 82.232C41.4134 82.424 42.7574 82.52 44.1654 82.52C48.5814 82.52 51.8134 81.432 53.8614 79.256C55.9094 77.08 56.9334 73.944 56.9334 69.848V62.264H56.7414C55.2054 65.016 53.0934 67.16 50.4054 68.696C47.7814 70.232 44.9334 71 41.8614 71C37.8934 71 34.5014 70.328 31.6854 68.984C28.9334 67.576 26.6294 65.688 24.7734 63.32C22.9814 60.888 21.6694 58.104 20.8374 54.968C20.0054 51.832 19.5894 48.472 19.5894 44.888C19.5894 41.56 20.1014 38.392 21.1254 35.384C22.1494 32.376 23.6214 29.752 25.5414 27.512C27.4614 25.208 29.7974 23.384 32.5494 22.04C35.3654 20.696 38.5334 20.024 42.0534 20.024C45.1894 20.024 48.0694 20.696 50.6934 22.04C53.3174 23.32 55.3334 25.368 56.7414 28.184H56.9334V21.368H67.8774V68.408ZM43.5894 62.36C46.0214 62.36 48.0694 61.88 49.7334 60.92C51.4614 59.896 52.8374 58.584 53.8614 56.984C54.9494 55.32 55.7174 53.464 56.1654 51.416C56.6774 49.304 56.9334 47.192 56.9334 45.08C56.9334 42.968 56.6774 40.92 56.1654 38.936C55.6534 36.952 54.8534 35.192 53.7654 33.656C52.7414 32.12 51.3654 30.904 49.6374 30.008C47.9734 29.112 45.9574 28.664 43.5894 28.664C41.1574 28.664 39.1094 29.176 37.4454 30.2C35.7814 31.224 34.4374 32.568 33.4134 34.232C32.3894 35.832 31.6534 37.688 31.2054 39.8C30.7574 41.848 30.5334 43.896 30.5334 45.944C30.5334 47.992 30.7894 50.008 31.3014 51.992C31.8134 53.912 32.5814 55.64 33.6054 57.176C34.6934 58.712 36.0374 59.96 37.6374 60.92C39.3014 61.88 41.2854 62.36 43.5894 62.36ZM97.8076 72.344C93.8396 72.344 90.2876 71.704 87.1516 70.424C84.0796 69.08 81.4556 67.256 79.2796 64.952C77.1676 62.648 75.5356 59.896 74.3836 56.696C73.2956 53.496 72.7516 49.976 72.7516 46.136C72.7516 42.36 73.2956 38.872 74.3836 35.672C75.5356 32.472 77.1676 29.72 79.2796 27.416C81.4556 25.112 84.0796 23.32 87.1516 22.04C90.2876 20.696 93.8396 20.024 97.8076 20.024C101.776 20.024 105.296 20.696 108.368 22.04C111.504 23.32 114.128 25.112 116.24 27.416C118.416 29.72 120.048 32.472 121.136 35.672C122.288 38.872 122.864 42.36 122.864 46.136C122.864 49.976 122.288 53.496 121.136 56.696C120.048 59.896 118.416 62.648 116.24 64.952C114.128 67.256 111.504 69.08 108.368 70.424C105.296 71.704 101.776 72.344 97.8076 72.344ZM97.8076 63.704C100.24 63.704 102.352 63.192 104.144 62.168C105.936 61.144 107.408 59.8 108.56 58.136C109.712 56.472 110.544 54.616 111.056 52.568C111.632 50.456 111.92 48.312 111.92 46.136C111.92 44.024 111.632 41.912 111.056 39.8C110.544 37.688 109.712 35.832 108.56 34.232C107.408 32.568 105.936 31.224 104.144 30.2C102.352 29.176 100.24 28.664 97.8076 28.664C95.3756 28.664 93.2636 29.176 91.4716 30.2C89.6796 31.224 88.2076 32.568 87.0556 34.232C85.9036 35.832 85.0396 37.688 84.4636 39.8C83.9516 41.912 83.6956 44.024 83.6956 46.136C83.6956 48.312 83.9516 50.456 84.4636 52.568C85.0396 54.616 85.9036 56.472 87.0556 58.136C88.2076 59.8 89.6796 61.144 91.4716 62.168C93.2636 63.192 95.3756 63.704 97.8076 63.704ZM128.122 21.368H138.394V30.968H138.586C138.906 29.624 139.514 28.312 140.41 27.032C141.37 25.752 142.49 24.6 143.77 23.576C145.114 22.488 146.586 21.624 148.186 20.984C149.786 20.344 151.418 20.024 153.082 20.024C154.362 20.024 155.226 20.056 155.674 20.12C156.186 20.184 156.698 20.248 157.21 20.312V30.872C156.442 30.744 155.642 30.648 154.81 30.584C154.042 30.456 153.274 30.392 152.506 30.392C150.65 30.392 148.89 30.776 147.226 31.544C145.626 32.248 144.218 33.336 143.002 34.808C141.786 36.216 140.826 37.976 140.122 40.088C139.418 42.2 139.066 44.632 139.066 47.384V71H128.122V21.368ZM190.319 48.152C190.319 50.776 190.767 53.016 191.663 54.872C192.559 56.728 193.807 58.264 195.407 59.48C197.007 60.632 198.831 61.496 200.879 62.072C202.991 62.584 205.263 62.84 207.695 62.84C210.319 62.84 212.559 62.552 214.415 61.976C216.271 61.336 217.775 60.536 218.927 59.576C220.079 58.616 220.911 57.528 221.423 56.312C221.935 55.032 222.191 53.752 222.191 52.472C222.191 49.848 221.583 47.928 220.367 46.712C219.215 45.432 217.935 44.536 216.527 44.024C214.095 43.128 211.247 42.296 207.983 41.528C204.783 40.696 200.815 39.64 196.079 38.36C193.135 37.592 190.671 36.6 188.687 35.384C186.767 34.104 185.231 32.696 184.079 31.16C182.927 29.624 182.095 27.992 181.583 26.264C181.135 24.536 180.911 22.776 180.911 20.984C180.911 17.528 181.615 14.552 183.023 12.056C184.495 9.496 186.415 7.384 188.783 5.72C191.151 4.056 193.839 2.84 196.847 2.07199C199.855 1.24 202.895 0.823999 205.967 0.823999C209.551 0.823999 212.911 1.304 216.047 2.264C219.247 3.16 222.031 4.536 224.399 6.392C226.831 8.248 228.751 10.552 230.159 13.304C231.567 15.992 232.271 19.128 232.271 22.712H220.271C219.951 18.296 218.447 15.192 215.759 13.4C213.071 11.544 209.647 10.616 205.487 10.616C204.079 10.616 202.639 10.776 201.167 11.096C199.695 11.352 198.351 11.832 197.135 12.536C195.919 13.176 194.895 14.072 194.063 15.224C193.295 16.376 192.911 17.816 192.911 19.544C192.911 21.976 193.647 23.896 195.119 25.304C196.655 26.648 198.639 27.672 201.071 28.376C201.327 28.44 202.319 28.728 204.047 29.24C205.839 29.688 207.823 30.2 209.999 30.776C212.175 31.352 214.287 31.928 216.335 32.504C218.447 33.016 219.951 33.4 220.847 33.656C223.087 34.36 225.039 35.32 226.703 36.536C228.367 37.752 229.743 39.16 230.831 40.76C231.983 42.296 232.815 43.96 233.327 45.752C233.903 47.544 234.191 49.336 234.191 51.128C234.191 54.968 233.391 58.264 231.791 61.016C230.255 63.704 228.207 65.912 225.647 67.64C223.087 69.368 220.175 70.616 216.911 71.384C213.647 72.216 210.319 72.632 206.927 72.632C203.023 72.632 199.343 72.152 195.887 71.192C192.431 70.232 189.423 68.76 186.863 66.776C184.303 64.792 182.255 62.264 180.719 59.192C179.183 56.056 178.383 52.376 178.319 48.152H190.319Z" fill="white" fill-opacity="0.96"/>
<path d="M262.073 72.344C258.105 72.344 254.553 71.704 251.417 70.424C248.345 69.08 245.721 67.256 243.545 64.952C241.433 62.648 239.801 59.896 238.649 56.696C237.561 53.496 237.017 49.976 237.017 46.136C237.017 42.36 237.561 38.872 238.649 35.672C239.801 32.472 241.433 29.72 243.545 27.416C245.721 25.112 248.345 23.32 251.417 22.04C254.553 20.696 258.105 20.024 262.073 20.024C266.041 20.024 269.561 20.696 272.633 22.04C275.769 23.32 278.393 25.112 280.505 27.416C282.681 29.72 284.313 32.472 285.401 35.672C286.553 38.872 287.129 42.36 287.129 46.136C287.129 49.976 286.553 53.496 285.401 56.696C284.313 59.896 282.681 62.648 280.505 64.952C278.393 67.256 275.769 69.08 272.633 70.424C269.561 71.704 266.041 72.344 262.073 72.344ZM262.073 63.704C264.505 63.704 266.617 63.192 268.409 62.168C270.201 61.144 271.673 59.8 272.825 58.136C273.977 56.472 274.809 54.616 275.321 52.568C275.897 50.456 276.185 48.312 276.185 46.136C276.185 44.024 275.897 41.912 275.321 39.8C274.809 37.688 273.977 35.832 272.825 34.232C271.673 32.568 270.201 31.224 268.409 30.2C266.617 29.176 264.505 28.664 262.073 28.664C259.641 28.664 257.529 29.176 255.737 30.2C253.945 31.224 252.473 32.568 251.321 34.232C250.169 35.832 249.305 37.688 248.729 39.8C248.217 41.912 247.961 44.024 247.961 46.136C247.961 48.312 248.217 50.456 248.729 52.568C249.305 54.616 250.169 56.472 251.321 58.136C252.473 59.8 253.945 61.144 255.737 62.168C257.529 63.192 259.641 63.704 262.073 63.704ZM292.675 2.456H303.619V41.432L323.395 21.368H336.835L317.827 39.608L338.659 71H325.315L310.147 46.904L303.619 53.24V71H292.675V2.456ZM362.861 72.344C358.893 72.344 355.341 71.704 352.205 70.424C349.133 69.08 346.509 67.256 344.333 64.952C342.221 62.648 340.589 59.896 339.437 56.696C338.349 53.496 337.805 49.976 337.805 46.136C337.805 42.36 338.349 38.872 339.437 35.672C340.589 32.472 342.221 29.72 344.333 27.416C346.509 25.112 349.133 23.32 352.205 22.04C355.341 20.696 358.893 20.024 362.861 20.024C366.829 20.024 370.349 20.696 373.421 22.04C376.557 23.32 379.181 25.112 381.293 27.416C383.469 29.72 385.101 32.472 386.189 35.672C387.341 38.872 387.917 42.36 387.917 46.136C387.917 49.976 387.341 53.496 386.189 56.696C385.101 59.896 383.469 62.648 381.293 64.952C379.181 67.256 376.557 69.08 373.421 70.424C370.349 71.704 366.829 72.344 362.861 72.344ZM362.861 63.704C365.293 63.704 367.405 63.192 369.197 62.168C370.989 61.144 372.461 59.8 373.613 58.136C374.765 56.472 375.597 54.616 376.109 52.568C376.685 50.456 376.973 48.312 376.973 46.136C376.973 44.024 376.685 41.912 376.109 39.8C375.597 37.688 374.765 35.832 373.613 34.232C372.461 32.568 370.989 31.224 369.197 30.2C367.405 29.176 365.293 28.664 362.861 28.664C360.429 28.664 358.317 29.176 356.525 30.2C354.733 31.224 353.261 32.568 352.109 34.232C350.957 35.832 350.093 37.688 349.517 39.8C349.005 41.912 348.749 44.024 348.749 46.136C348.749 48.312 349.005 50.456 349.517 52.568C350.093 54.616 350.957 56.472 352.109 58.136C353.261 59.8 354.733 61.144 356.525 62.168C358.317 63.192 360.429 63.704 362.861 63.704ZM393.464 2.456H404.408V71H393.464V2.456ZM407.5 21.368H415.756V6.488H426.7V21.368H436.588V29.528H426.7V56.024C426.7 57.176 426.732 58.168 426.796 59C426.924 59.832 427.148 60.536 427.468 61.112C427.852 61.688 428.396 62.136 429.1 62.456C429.804 62.712 430.764 62.84 431.98 62.84C432.748 62.84 433.516 62.84 434.284 62.84C435.052 62.776 435.82 62.648 436.588 62.456V70.904C435.372 71.032 434.188 71.16 433.036 71.288C431.884 71.416 430.7 71.48 429.484 71.48C426.604 71.48 424.268 71.224 422.476 70.712C420.748 70.136 419.372 69.336 418.348 68.312C417.388 67.224 416.716 65.88 416.332 64.28C416.012 62.68 415.82 60.856 415.756 58.808V29.528H407.5V21.368ZM448.877 55.064C449.197 58.264 450.413 60.504 452.525 61.784C454.637 63.064 457.165 63.704 460.109 63.704C461.133 63.704 462.285 63.64 463.565 63.512C464.909 63.32 466.157 63 467.309 62.552C468.461 62.104 469.389 61.464 470.093 60.632C470.861 59.736 471.213 58.584 471.149 57.176C471.085 55.768 470.573 54.616 469.613 53.72C468.653 52.824 467.405 52.12 465.869 51.608C464.397 51.032 462.701 50.552 460.781 50.168C458.861 49.784 456.909 49.368 454.925 48.92C452.877 48.472 450.893 47.928 448.973 47.288C447.117 46.648 445.421 45.784 443.885 44.696C442.413 43.608 441.229 42.232 440.333 40.568C439.437 38.84 438.989 36.728 438.989 34.232C438.989 31.544 439.629 29.304 440.909 27.512C442.253 25.656 443.917 24.184 445.901 23.096C447.949 21.944 450.189 21.144 452.621 20.696C455.117 20.248 457.485 20.024 459.725 20.024C462.285 20.024 464.717 20.312 467.021 20.888C469.389 21.4 471.501 22.264 473.357 23.48C475.277 24.696 476.845 26.296 478.061 28.28C479.341 30.2 480.141 32.536 480.461 35.288H469.037C468.525 32.664 467.309 30.904 465.389 30.008C463.533 29.112 461.389 28.664 458.957 28.664C458.189 28.664 457.261 28.728 456.173 28.856C455.149 28.984 454.157 29.24 453.197 29.624C452.301 29.944 451.533 30.456 450.893 31.16C450.253 31.8 449.933 32.664 449.933 33.752C449.933 35.096 450.381 36.184 451.277 37.016C452.237 37.848 453.453 38.552 454.925 39.128C456.461 39.64 458.189 40.088 460.109 40.472C462.029 40.856 464.013 41.272 466.061 41.72C468.045 42.168 469.997 42.712 471.917 43.352C473.837 43.992 475.533 44.856 477.005 45.944C478.541 47.032 479.757 48.408 480.653 50.072C481.613 51.736 482.093 53.784 482.093 56.216C482.093 59.16 481.421 61.656 480.077 63.704C478.733 65.752 476.973 67.416 474.797 68.696C472.685 69.976 470.317 70.904 467.693 71.48C465.069 72.056 462.477 72.344 459.917 72.344C456.781 72.344 453.869 71.992 451.181 71.288C448.557 70.584 446.253 69.528 444.269 68.12C442.349 66.648 440.813 64.856 439.661 62.744C438.573 60.568 437.997 58.008 437.933 55.064H448.877ZM509.314 72.344C505.346 72.344 501.794 71.704 498.658 70.424C495.586 69.08 492.962 67.256 490.786 64.952C488.674 62.648 487.042 59.896 485.89 56.696C484.802 53.496 484.258 49.976 484.258 46.136C484.258 42.36 484.802 38.872 485.89 35.672C487.042 32.472 488.674 29.72 490.786 27.416C492.962 25.112 495.586 23.32 498.658 22.04C501.794 20.696 505.346 20.024 509.314 20.024C513.282 20.024 516.802 20.696 519.874 22.04C523.01 23.32 525.634 25.112 527.746 27.416C529.922 29.72 531.554 32.472 532.642 35.672C533.794 38.872 534.37 42.36 534.37 46.136C534.37 49.976 533.794 53.496 532.642 56.696C531.554 59.896 529.922 62.648 527.746 64.952C525.634 67.256 523.01 69.08 519.874 70.424C516.802 71.704 513.282 72.344 509.314 72.344ZM509.314 63.704C511.746 63.704 513.858 63.192 515.65 62.168C517.442 61.144 518.914 59.8 520.066 58.136C521.218 56.472 522.05 54.616 522.562 52.568C523.138 50.456 523.426 48.312 523.426 46.136C523.426 44.024 523.138 41.912 522.562 39.8C522.05 37.688 521.218 35.832 520.066 34.232C518.914 32.568 517.442 31.224 515.65 30.2C513.858 29.176 511.746 28.664 509.314 28.664C506.882 28.664 504.77 29.176 502.978 30.2C501.186 31.224 499.714 32.568 498.562 34.232C497.41 35.832 496.546 37.688 495.97 39.8C495.458 41.912 495.202 44.024 495.202 46.136C495.202 48.312 495.458 50.456 495.97 52.568C496.546 54.616 497.41 56.472 498.562 58.136C499.714 59.8 501.186 61.144 502.978 62.168C504.77 63.192 506.882 63.704 509.314 63.704ZM534.732 21.368H546.636L559.212 59.48H559.404L571.5 21.368H582.828L565.068 71H552.78L534.732 21.368Z" fill="white" fill-opacity="0.96"/>
</svg>
